<svg xmlns="http://www.w3.org/2000/svg" width="1200" height="1000" viewBox="0 0 1200 1000">
<rect width="1200" height="1000" fill="#FAF7F0"/>
<g font-family="Arial,sans-serif" fill="#283C30"><text x="64" y="75" font-size="35" font-weight="bold">little studio✳</text><text x="760" y="70" font-size="18">Explore</text><text x="874" y="70" font-size="18">Our story</text><rect x="1018" y="36" width="120" height="52" rx="26" fill="#283C30"/><text x="1041" y="69" font-size="16" fill="white">Say hello ↗</text>
<rect x="55" y="128" width="1090" height="444" rx="25" fill="#E4E8D5"/><text x="100" y="201" font-size="15" letter-spacing="3">LESS SCROLLING. MORE MAKING.</text><text x="95" y="290" font-size="78" font-weight="bold">Make something</text><text x="95" y="376" font-size="78" font-weight="bold">real.</text><text x="100" y="428" font-size="22">Pottery, painting, and a little happy mess.</text><rect x="99" y="469" width="251" height="56" rx="28" fill="#6941F5"/><text x="124" y="504" fill="white" font-size="18">Find your workshop ↗</text>
<g transform="translate(813 269) rotate(12)"><ellipse cx="70" cy="163" rx="138" ry="30" fill="#C5CBB4"/><path d="M-15 30Q-65 155 12 178H140Q192 148 140 30Z" fill="#CF8163"/><ellipse cx="62" cy="32" rx="82" ry="31" fill="#ECA887"/><ellipse cx="62" cy="29" rx="62" ry="20" fill="#804C40"/><path d="M-21 94h177M-24 111h184M-19 129h173" stroke="#B26751" stroke-width="4"/><path d="M139 65c88-35 101 79 18 70" fill="none" stroke="#CF8163" stroke-width="25"/></g><path d="M1030 190v50m-25-25h50m-43-18 36 36m0-36-36 36" stroke="#6941F5" stroke-width="5"/>
<text x="61" y="653" font-size="34" font-weight="bold">Small groups. Big ideas.</text><text x="986" y="650" font-size="17">See all classes ↗</text>
<rect x="60" y="687" width="340" height="212" rx="15" fill="#E3BCA4"/><rect x="430" y="687" width="340" height="212" rx="15" fill="#CED8BB"/><rect x="800" y="687" width="340" height="212" rx="15" fill="#D6CEE6"/>
<ellipse cx="230" cy="863" rx="88" ry="14" fill="#C3947F"/><path d="M177 749h109l-12 108q-43 27-84 0Z" fill="#F0D5BB"/><ellipse cx="231" cy="749" rx="55" ry="18" fill="#8B5D4C"/>
<g transform="rotate(-12 600 780)"><rect x="524" y="715" width="154" height="162" rx="4" fill="#FFFBEF"/><path d="M538 849 572 755l38 47 26-44 27 91" fill="#E79A83"/><circle cx="641" cy="740" r="13" fill="#E9BB58"/></g>
<path d="M938 865v-135m0 75-40-43m41 21 39-36m-40 79 44-37" stroke="#547855" stroke-width="7"/><path d="M903 760c-36-28-48 24-6 27m78-42c29-33 49 17 3 28m8 10c34-25 41 19 0 30" fill="#759875"/><path d="M913 825h56l-10 52h-36Z" fill="#DC967C"/>
<text x="62" y="938" font-size="23" font-weight="bold">A little clay time</text><text x="347" y="938" font-size="22">€45</text><text x="432" y="938" font-size="23" font-weight="bold">Paint outside the lines</text><text x="717" y="938" font-size="22">€35</text><text x="802" y="938" font-size="23" font-weight="bold">Stem by stem</text><text x="1087" y="938" font-size="22">€40</text><text x="62" y="968" font-size="16" fill="#647264">Pottery · Amsterdam</text><text x="432" y="968" font-size="16" fill="#647264">Painting · Amsterdam</text><text x="802" y="968" font-size="16" fill="#647264">Floristry · Amsterdam</text></g></svg>
